<svg xmlns="http://www.w3.org/2000/svg" version="1.1" xmlns:xlink="http://www.w3.org/1999/xlink" xmlns:svgjs="http://svgjs.dev/svgjs" width="1500" height="1500" viewBox="0 0 1500 1500"><rect width="1500" height="1500" fill="#ffffff"></rect><g transform="matrix(0.6666666666666666,0,0,0.6666666666666666,249.39393939393938,592.9074203831376)"><svg viewBox="0 0 396 125" data-background-color="#191552" preserveAspectRatio="xMidYMid meet" height="473" width="1500" xmlns="http://www.w3.org/2000/svg" xmlns:xlink="http://www.w3.org/1999/xlink"><g id="tight-bounds" transform="matrix(1,0,0,1,0.2400000000000091,-0.22757150494351208)"><svg viewBox="0 0 395.52 125.45514300988704" height="125.45514300988704" width="395.52"><g><svg viewBox="0 0 395.52 125.45514300988704" height="125.45514300988704" width="395.52"><g transform="matrix(1,0,0,1,0,64.52570421150072)"><svg viewBox="0 0 395.52 60.929438798386315" height="60.929438798386315" width="395.52"><g id="textblocktransform"><svg viewBox="0 0 395.52 60.929438798386315" height="60.929438798386315" width="395.52" id="textblock"><g><svg viewBox="0 0 395.52 60.929438798386315" height="60.929438798386315" width="395.52"><g transform="matrix(1,0,0,1,0,0)"><svg width="395.52" viewBox="-0.5575 -21.54381 316.74459 48.79416" height="60.929438798386315" data-palette-color="url(#d04d73b7-a5a2-4761-8a22-db3ad9e19bec)"></svg></g></svg></g></svg></g></svg></g><g transform="matrix(1,0,0,1,180.0847820545769,0)"><svg viewBox="0 0 35.35043589084622 60.92943879838631" height="60.92943879838631" width="35.35043589084622"><g><svg xmlns="http://www.w3.org/2000/svg" xmlns:xlink="http://www.w3.org/1999/xlink" version="1.1" x="0" y="0" viewBox="21.679106830508623 1 56.85827385947761 98" enable-background="new 0 0 100 100" xml:space="preserve" height="60.92943879838631" width="35.35043589084622" class="icon-icon-0" data-fill-palette-color="accent" id="icon-0"></svg></g></svg></g><g></g></svg></g><defs></defs><mask id="f682a219-ebaa-46aa-bbdc-fba2033b4447"><g id="SvgjsG1035"><svg viewBox="0 0 395.52 125.45514300988704" height="125.45514300988704" width="395.52"><g><svg viewBox="0 0 395.52 125.45514300988704" height="125.45514300988704" width="395.52"><g transform="matrix(1,0,0,1,0,64.52570421150072)"><svg viewBox="0 0 395.52 60.929438798386315" height="60.929438798386315" width="395.52"><g id="SvgjsG1034"><svg viewBox="0 0 395.52 60.929438798386315" height="60.929438798386315" width="395.52" id="SvgjsSvg1033"><g><svg viewBox="0 0 395.52 60.929438798386315" height="60.929438798386315" width="395.52"><g transform="matrix(1,0,0,1,0,0)"><svg width="395.52" viewBox="-0.5575 -21.54381 316.74459 48.79416" height="60.929438798386315" data-palette-color="url(#d04d73b7-a5a2-4761-8a22-db3ad9e19bec)"><path d="M-0.557 12.977l0.567-3.413 26.854-23.572-21.87-3.639 0.649-3.897 26.989 4.491-0.568 3.413-26.469 23.636 21.929 3.649-0.649 3.896zM46.619 20.329v0c-2.447-0.314-4.602-1.088-6.467-2.322-1.871-1.241-3.422-2.795-4.655-4.66-1.239-1.866-2.117-3.904-2.633-6.115-0.51-2.209-0.622-4.425-0.338-6.647v0c0.297-2.314 0.997-4.473 2.101-6.475 1.103-1.996 2.501-3.725 4.195-5.189 1.699-1.456 3.606-2.539 5.719-3.248 2.121-0.709 4.355-0.913 6.703-0.613v0c2.453 0.315 4.61 1.105 6.47 2.373 1.861 1.267 3.403 2.843 4.627 4.727 1.217 1.883 2.085 3.92 2.603 6.111 0.512 2.19 0.628 4.379 0.348 6.567v0c-0.298 2.321-0.989 4.484-2.073 6.489-1.09 1.998-2.484 3.728-4.184 5.19-1.692 1.457-3.598 2.53-5.716 3.219-2.112 0.697-4.346 0.894-6.7 0.593zM36.98 1.156v0c-0.226 1.766-0.158 3.512 0.205 5.239 0.357 1.719 0.977 3.284 1.858 4.695 0.882 1.404 2.009 2.576 3.38 3.518 1.378 0.943 2.963 1.529 4.755 1.759v0c1.865 0.239 3.582 0.059 5.15-0.539 1.576-0.598 2.959-1.482 4.151-2.653 1.199-1.177 2.172-2.548 2.917-4.112 0.752-1.564 1.234-3.179 1.448-4.846v0c0.226-1.759 0.156-3.492-0.21-5.199-0.359-1.706-0.988-3.272-1.887-4.698-0.893-1.425-2.019-2.601-3.379-3.528-1.361-0.921-2.924-1.494-4.689-1.721v0c-1.858-0.238-3.57-0.068-5.137 0.511-1.573 0.578-2.956 1.456-4.149 2.633-1.199 1.177-2.18 2.537-2.942 4.079-0.763 1.549-1.253 3.17-1.471 4.862zM96.488-10.048l4.423 0.392-3.103 34.933-4.422-0.393 1.411-15.887-19.244-1.709-1.411 15.887-4.423-0.393 3.102-34.932 4.423 0.393-1.341 15.1 19.244 1.709zM111.158 25.926l-4.435-0.213 1.684-35.03 14.993 0.721c1.552 0.075 2.951 0.462 4.199 1.163 1.254 0.708 2.332 1.617 3.233 2.729 0.901 1.118 1.582 2.355 2.044 3.712 0.462 1.357 0.66 2.725 0.593 4.104v0c-0.077 1.611-0.454 3.128-1.13 4.55-0.675 1.416-1.59 2.607-2.744 3.573-1.148 0.966-2.474 1.61-3.978 1.931v0l7.845 13.833-5.034-0.242-7.386-12.97-9.279-0.446zM112.652-5.158l-0.699 14.553 10.607 0.51c1.219 0.059 2.297-0.227 3.235-0.855 0.938-0.629 1.687-1.491 2.247-2.585 0.567-1.094 0.881-2.284 0.942-3.569v0c0.063-1.312-0.175-2.535-0.714-3.669-0.54-1.127-1.27-2.043-2.191-2.748-0.921-0.705-1.957-1.085-3.108-1.141v0zM135.95 26.984l14.666-34.951 3.75 0.031 14.042 35.186-4.749-0.039-4.056-10.303-14.72-0.121-4.184 10.236zM145.792 13.335l12.849 0.105-6.187-16.251zM210.253 25.833l-22.217-25.995 1.084 26.848-4.436 0.179-1.415-35.041 3.747-0.152 22.528 26.523-1.104-27.338 4.447-0.179 1.413 34.991zM227.287 20.661l19.308-1.548 0.316 3.938-23.734 1.903-2.803-34.958 23.285-1.867 0.316 3.937-18.86 1.512 0.908 11.324 16.398-1.315 0.296 3.698-16.397 1.315zM265.479 20.848l-12.067 1.415-4.085-34.831 12.067-1.415c3.728-0.437 6.934-0.025 9.62 1.237 2.685 1.256 4.804 3.128 6.358 5.618 1.546 2.483 2.508 5.331 2.884 8.542v0c0.414 3.529 0.089 6.682-0.975 9.458-1.071 2.777-2.779 5.035-5.126 6.773-2.348 1.732-5.24 2.799-8.676 3.203zM275.797 1.937v0c-0.307-2.622-1.063-4.889-2.268-6.802-1.204-1.913-2.787-3.335-4.749-4.266-1.968-0.93-4.277-1.24-6.926-0.929v0l-7.657 0.898 3.165 26.985 7.657-0.898c2.682-0.314 4.87-1.175 6.564-2.582 1.687-1.413 2.888-3.195 3.602-5.346 0.707-2.157 0.911-4.51 0.612-7.06zM284.127 18.532l8.713-36.888 3.704-0.587 19.643 32.394-4.691 0.744-5.697-9.496-14.539 2.305-2.441 10.785zM291.588 3.449l12.692-2.012-8.778-15.011z" opacity="1" transform="matrix(1,0,0,1,0,0)" fill="white" class="wordmark-text-0" id="SvgjsPath1032"></path></svg></g></svg></g></svg></g></svg></g><g transform="matrix(1,0,0,1,180.0847820545769,0)"><svg viewBox="0 0 35.35043589084622 60.92943879838631" height="60.92943879838631" width="35.35043589084622"><g><svg xmlns="http://www.w3.org/2000/svg" xmlns:xlink="http://www.w3.org/1999/xlink" version="1.1" x="0" y="0" viewBox="21.679106830508623 1 56.85827385947761 98" enable-background="new 0 0 100 100" xml:space="preserve" height="60.92943879838631" width="35.35043589084622" class="icon-icon-0" data-fill-palette-color="accent" id="SvgjsSvg1031"><g fill="black"><path fill-rule="evenodd" clip-rule="evenodd" d="M30.545 28.822c-1.165 7.217 0.33 14.85 6.5 19.041C30.758 19.81 45.756 8.664 59.646 1c-16.18 23.046 16.896 23.644 18.777 50.13C80.028 73.71 64.507 91.317 46.639 99c0.206-22.825-22.55-25.933-24.838-44.603C20.905 47.094 25.062 33.766 30.545 28.822z" fill="black"></path></g></svg></g></svg></g><g></g></svg></g><defs><mask></mask></defs></svg><rect width="395.52" height="125.45514300988704" fill="black" stroke="none" visibility="hidden"></rect></g></mask><linearGradient x1="0" x2="1" y1="0.578" y2="0.595" id="d04d73b7-a5a2-4761-8a22-db3ad9e19bec"><stop stop-color="#6ee2f5" offset="0"></stop><stop stop-color="#6454f0" offset="1"></stop></linearGradient><rect width="395.52" height="125.45514300988704" fill="#000000" mask="url(#f682a219-ebaa-46aa-bbdc-fba2033b4447)" data-fill-palette-color="primary"></rect><mask id="5e5d925c-7269-4b1f-be2d-3d808a1bd566"><g id="SvgjsG1044"><svg viewBox="0 0 395.52 125.45514300988704" height="125.45514300988704" width="395.52"><g><svg viewBox="0 0 395.52 125.45514300988704" height="125.45514300988704" width="395.52"><g transform="matrix(1,0,0,1,0,64.52570421150072)"><svg viewBox="0 0 395.52 60.929438798386315" height="60.929438798386315" width="395.52"><g id="SvgjsG1043"><svg viewBox="0 0 395.52 60.929438798386315" height="60.929438798386315" width="395.52" id="SvgjsSvg1042"><g><svg viewBox="0 0 395.52 60.929438798386315" height="60.929438798386315" width="395.52"><g transform="matrix(1,0,0,1,0,0)"><svg width="395.52" viewBox="-0.5575 -21.54381 316.74459 48.79416" height="60.929438798386315" data-palette-color="url(#d04d73b7-a5a2-4761-8a22-db3ad9e19bec)"></svg></g></svg></g></svg></g></svg></g><g transform="matrix(1,0,0,1,180.0847820545769,0)"><svg viewBox="0 0 35.35043589084622 60.92943879838631" height="60.92943879838631" width="35.35043589084622"><g><svg xmlns="http://www.w3.org/2000/svg" xmlns:xlink="http://www.w3.org/1999/xlink" version="1.1" x="0" y="0" viewBox="21.679106830508623 1 56.85827385947761 98" enable-background="new 0 0 100 100" xml:space="preserve" height="60.92943879838631" width="35.35043589084622" class="icon-icon-0" data-fill-palette-color="accent" id="SvgjsSvg1041"><g fill="white"><path fill-rule="evenodd" clip-rule="evenodd" d="M30.545 28.822c-1.165 7.217 0.33 14.85 6.5 19.041C30.758 19.81 45.756 8.664 59.646 1c-16.18 23.046 16.896 23.644 18.777 50.13C80.028 73.71 64.507 91.317 46.639 99c0.206-22.825-22.55-25.933-24.838-44.603C20.905 47.094 25.062 33.766 30.545 28.822z" fill="white"></path></g></svg></g></svg></g><g></g></svg></g><defs><mask></mask></defs><mask><g id="SvgjsG1040"><svg viewBox="0 0 395.52 125.45514300988704" height="125.45514300988704" width="395.52"><g><svg viewBox="0 0 395.52 125.45514300988704" height="125.45514300988704" width="395.52"><g transform="matrix(1,0,0,1,0,64.52570421150072)"><svg viewBox="0 0 395.52 60.929438798386315" height="60.929438798386315" width="395.52"><g id="SvgjsG1039"><svg viewBox="0 0 395.52 60.929438798386315" height="60.929438798386315" width="395.52" id="SvgjsSvg1038"><g><svg viewBox="0 0 395.52 60.929438798386315" height="60.929438798386315" width="395.52"><g transform="matrix(1,0,0,1,0,0)"><svg width="395.52" viewBox="-0.5575 -21.54381 316.74459 48.79416" height="60.929438798386315" data-palette-color="url(#d04d73b7-a5a2-4761-8a22-db3ad9e19bec)"><path d="M-0.557 12.977l0.567-3.413 26.854-23.572-21.87-3.639 0.649-3.897 26.989 4.491-0.568 3.413-26.469 23.636 21.929 3.649-0.649 3.896zM46.619 20.329v0c-2.447-0.314-4.602-1.088-6.467-2.322-1.871-1.241-3.422-2.795-4.655-4.66-1.239-1.866-2.117-3.904-2.633-6.115-0.51-2.209-0.622-4.425-0.338-6.647v0c0.297-2.314 0.997-4.473 2.101-6.475 1.103-1.996 2.501-3.725 4.195-5.189 1.699-1.456 3.606-2.539 5.719-3.248 2.121-0.709 4.355-0.913 6.703-0.613v0c2.453 0.315 4.61 1.105 6.47 2.373 1.861 1.267 3.403 2.843 4.627 4.727 1.217 1.883 2.085 3.92 2.603 6.111 0.512 2.19 0.628 4.379 0.348 6.567v0c-0.298 2.321-0.989 4.484-2.073 6.489-1.09 1.998-2.484 3.728-4.184 5.19-1.692 1.457-3.598 2.53-5.716 3.219-2.112 0.697-4.346 0.894-6.7 0.593zM36.98 1.156v0c-0.226 1.766-0.158 3.512 0.205 5.239 0.357 1.719 0.977 3.284 1.858 4.695 0.882 1.404 2.009 2.576 3.38 3.518 1.378 0.943 2.963 1.529 4.755 1.759v0c1.865 0.239 3.582 0.059 5.15-0.539 1.576-0.598 2.959-1.482 4.151-2.653 1.199-1.177 2.172-2.548 2.917-4.112 0.752-1.564 1.234-3.179 1.448-4.846v0c0.226-1.759 0.156-3.492-0.21-5.199-0.359-1.706-0.988-3.272-1.887-4.698-0.893-1.425-2.019-2.601-3.379-3.528-1.361-0.921-2.924-1.494-4.689-1.721v0c-1.858-0.238-3.57-0.068-5.137 0.511-1.573 0.578-2.956 1.456-4.149 2.633-1.199 1.177-2.18 2.537-2.942 4.079-0.763 1.549-1.253 3.17-1.471 4.862zM96.488-10.048l4.423 0.392-3.103 34.933-4.422-0.393 1.411-15.887-19.244-1.709-1.411 15.887-4.423-0.393 3.102-34.932 4.423 0.393-1.341 15.1 19.244 1.709zM111.158 25.926l-4.435-0.213 1.684-35.03 14.993 0.721c1.552 0.075 2.951 0.462 4.199 1.163 1.254 0.708 2.332 1.617 3.233 2.729 0.901 1.118 1.582 2.355 2.044 3.712 0.462 1.357 0.66 2.725 0.593 4.104v0c-0.077 1.611-0.454 3.128-1.13 4.55-0.675 1.416-1.59 2.607-2.744 3.573-1.148 0.966-2.474 1.61-3.978 1.931v0l7.845 13.833-5.034-0.242-7.386-12.97-9.279-0.446zM112.652-5.158l-0.699 14.553 10.607 0.51c1.219 0.059 2.297-0.227 3.235-0.855 0.938-0.629 1.687-1.491 2.247-2.585 0.567-1.094 0.881-2.284 0.942-3.569v0c0.063-1.312-0.175-2.535-0.714-3.669-0.54-1.127-1.27-2.043-2.191-2.748-0.921-0.705-1.957-1.085-3.108-1.141v0zM135.95 26.984l14.666-34.951 3.75 0.031 14.042 35.186-4.749-0.039-4.056-10.303-14.72-0.121-4.184 10.236zM145.792 13.335l12.849 0.105-6.187-16.251zM210.253 25.833l-22.217-25.995 1.084 26.848-4.436 0.179-1.415-35.041 3.747-0.152 22.528 26.523-1.104-27.338 4.447-0.179 1.413 34.991zM227.287 20.661l19.308-1.548 0.316 3.938-23.734 1.903-2.803-34.958 23.285-1.867 0.316 3.937-18.86 1.512 0.908 11.324 16.398-1.315 0.296 3.698-16.397 1.315zM265.479 20.848l-12.067 1.415-4.085-34.831 12.067-1.415c3.728-0.437 6.934-0.025 9.62 1.237 2.685 1.256 4.804 3.128 6.358 5.618 1.546 2.483 2.508 5.331 2.884 8.542v0c0.414 3.529 0.089 6.682-0.975 9.458-1.071 2.777-2.779 5.035-5.126 6.773-2.348 1.732-5.24 2.799-8.676 3.203zM275.797 1.937v0c-0.307-2.622-1.063-4.889-2.268-6.802-1.204-1.913-2.787-3.335-4.749-4.266-1.968-0.93-4.277-1.24-6.926-0.929v0l-7.657 0.898 3.165 26.985 7.657-0.898c2.682-0.314 4.87-1.175 6.564-2.582 1.687-1.413 2.888-3.195 3.602-5.346 0.707-2.157 0.911-4.51 0.612-7.06zM284.127 18.532l8.713-36.888 3.704-0.587 19.643 32.394-4.691 0.744-5.697-9.496-14.539 2.305-2.441 10.785zM291.588 3.449l12.692-2.012-8.778-15.011z" opacity="1" transform="matrix(1,0,0,1,0,0)" fill="black" class="wordmark-text-0" id="SvgjsPath1037"></path></svg></g></svg></g></svg></g></svg></g><g transform="matrix(1,0,0,1,180.0847820545769,0)"><svg viewBox="0 0 35.35043589084622 60.92943879838631" height="60.92943879838631" width="35.35043589084622"><g><svg xmlns="http://www.w3.org/2000/svg" xmlns:xlink="http://www.w3.org/1999/xlink" version="1.1" x="0" y="0" viewBox="21.679106830508623 1 56.85827385947761 98" enable-background="new 0 0 100 100" xml:space="preserve" height="60.92943879838631" width="35.35043589084622" class="icon-icon-0" data-fill-palette-color="accent" id="SvgjsSvg1036"><g fill="black"><path fill-rule="evenodd" clip-rule="evenodd" d="M30.545 28.822c-1.165 7.217 0.33 14.85 6.5 19.041C30.758 19.81 45.756 8.664 59.646 1c-16.18 23.046 16.896 23.644 18.777 50.13C80.028 73.71 64.507 91.317 46.639 99c0.206-22.825-22.55-25.933-24.838-44.603C20.905 47.094 25.062 33.766 30.545 28.822z" fill="black"></path></g></svg></g></svg></g><g></g></svg></g><defs><mask></mask></defs></svg><rect width="395.52" height="125.45514300988704" fill="black" stroke="none" visibility="hidden"></rect></g></mask></svg><rect width="395.52" height="125.45514300988704" fill="black" stroke="none" visibility="hidden"></rect></g></mask><linearGradient x1="0" x2="1" y1="0.578" y2="0.595" id="2e09c82f-d6eb-4bee-81bc-00d4d10e52ca"><stop stop-color="#6ee2f5" offset="0"></stop><stop stop-color="#6454f0" offset="1"></stop></linearGradient><rect width="395.52" height="125.45514300988704" fill="#000000" mask="url(#5e5d925c-7269-4b1f-be2d-3d808a1bd566)" data-fill-palette-color="accent"></rect></svg><rect width="395.52" height="125.45514300988704" fill="none" stroke="none" visibility="hidden"></rect></g></svg></g></svg>